:SAMPLES-PER-SECOND 30
:FULLY-SPECIFIED
:DEGREES
90
root  34.73767558 36.58282963 -13.86568565 10.18744755 -5.455990314 3.460163593
lowerback  -8.000049591 -0.2437990457 -0.7360668182
upperback  -3.76451993 0.2168540061 -3.944910049
thorax  0.6058610082 0.2722789943 -3.644150019
lowerneck  -9.50135994 -11.92570019 -8.230999947
upperneck  14.35840034 -16.51160049 10.99510002
head  7.592679977 -7.352330208 3.167939901
lclavicle  0 -4.497500157e-015 -2.743230041e-014
lhumerus  -47.46179962 30.94759941 62.41609955
lradius  0.001172923949 -6.507048965e-006 29.56040192
lwrist  3.192251654e-007 -3.790274832e-007 -29.4552002
lhand  -0 -36.95709991 -10.71920013
lfingers  90 7.125020027 -90
lthumb  94.85225646 -25.55221243 101.1341023
rclavicle  0 -4.497500157e-015 -2.743230041e-014
rhumerus  -21.09219933 -23.62360001 -44.71070099
rradius  -5.16745672e-007 2.214343908e-008 96.9464035
rwrist  0.0003490542294 -0.002273720223 -175.2720032
rhand  -1.769353062e-031 3.751100063 -6.897109985
rfingers  -90 -7.125020027 -90
rthumb  -84.90198191 -9.042193947 -60.41862445
rfemur  -10.51251698 14.34368992 12.22571754
rtibia  0.5439463258 -1.469548345 16.81786919
rfoot  2.25986433 -22.22598457 -33.46686935
rtoes  4.170663246 19.57774502 -102.2771725
lfemur  -1.694287419 -15.08801746 -23.51596451
ltibia  8.464126587 -0.5742242336 4.013617039
lfoot  0.1269481778 -19.78248787 35.98377991
ltoes  -8.5086778 -18.16723907 -115.6329155
91
root  34.7365492 36.5824812 -13.86512846 10.196558 -5.431982517 3.475858688
lowerback  -7.981552124 -0.2410181016 -0.7518158555
upperback  -3.766690016 0.2191680074 -3.953900099
thorax  0.5935469866 0.2738290131 -3.644340038
lowerneck  -9.417189598 -11.99339962 -8.227089882
upperneck  14.28540039 -16.60460091 10.99709988
head  7.563379765 -7.402259827 3.161050081
lclavicle  0 -4.497500157e-015 -2.743230041e-014
lhumerus  -47.41059875 30.85659981 62.50260162
lradius  0.001172923949 -6.507048965e-006 29.55839729
lwrist  3.192251654e-007 -3.790274832e-007 -29.26239967
lhand  -0 -36.96749878 -10.66009998
lfingers  90 7.125020027 -90
lthumb  94.84449732 -25.49376558 101.1398403
rclavicle  0 -4.497500157e-015 -2.743230041e-014
rhumerus  -20.21890068 -23.85340118 -44.20880127
rradius  -5.16745672e-007 2.214343908e-008 96.62090302
rwrist  0.0003490542294 -0.002273720223 -175.095993
rhand  -1.769229933e-031 3.689779997 -6.684559822
rfingers  -90 -7.125020027 -90
rthumb  -84.81021591 -9.223494882 -60.46158511
rfemur  -10.51067543 14.29355526 12.21171951
rtibia  0.5432015657 -1.488009691 16.81448174
rfoot  2.254996061 -22.25317192 -33.45405579
rtoes  4.165023365 19.57890058 -102.2603419
lfemur  -1.703762293 -15.13133621 -23.52377129
ltibia  8.466119766 -0.5836194754 4.014129162
lfoot  0.1272581965 -19.75922966 35.99144745
ltoes  -8.516563034 -18.16364206 -115.658208
92
root  34.7360656 36.58214179 -13.86466139 10.20266151 -5.419542789 3.473678112
lowerback  -7.95361948 -0.2369378507 -0.7803688645
upperback  -3.776139975 0.2280530035 -3.970210075
thorax  0.5688999891 0.2791599929 -3.641606569
lowerneck  -9.312049866 -12.06379986 -8.304309845
upperneck  14.2123003 -16.70479965 11.09179974
head  7.546929836 -7.451930046 3.195420027
lclavicle  0 -4.497500157e-015 -2.743230041e-014
lhumerus  -47.39089966 30.78170013 62.54190063
lradius  0.001172923949 -6.507048965e-006 29.55649948
lwrist  3.192251654e-007 -3.790274832e-007 -29.1772995
lhand  -0 -36.98609924 -10.67749977
lfingers  90 7.125020027 -90
lthumb  94.85697402 -25.5101971 101.1614007
rclavicle  0 -4.497500157e-015 -2.743230041e-014
rhumerus  -19.29540062 -24.06620216 -43.75419998
rradius  -5.16745672e-007 2.214343908e-008 96.25839996
rwrist  0.0003490542294 -0.002273720223 -175.1210022
rhand  -1.769483897e-031 3.81517005 -6.705230236
rfingers  -90 -7.125020027 -90
rthumb  -84.79081997 -9.21273335 -60.34080868
rfemur  -10.52921295 14.28408718 12.22014046
rtibia  0.53648597 -1.474810481 16.83646393
rfoot  2.256366491 -22.22900581 -33.43392563
rtoes  4.150123384 19.58194555 -102.2158815
lfemur  -1.700891376 -15.15703011 -23.51994514
ltibia  8.467908859 -0.568864882 4.014131546
lfoot  0.1286937445 -19.7934742 36.01821518
ltoes  -8.520002501 -18.16207178 -115.6692419
93
root  34.73527563 36.58105144 -13.86425589 10.19156361 -5.396710873 3.486705065
lowerback  -7.942490578 -0.2324785739 -0.8006113172
upperback  -3.795180082 0.2364439964 -3.980859995
thorax  0.5435690284 0.284487009 -3.637953281
lowerneck  -9.236379623 -12.13430023 -8.384710312
upperneck  14.2027998 -16.80800056 11.1899004
head  7.557569981 -7.498370171 3.228440285
lclavicle  0 -4.497500157e-015 -2.743230041e-014
lhumerus  -47.42179871 30.73329926 62.55830002
lradius  0.001172923949 -6.507048965e-006 29.57939911
lwrist  3.192251654e-007 -3.790274832e-007 -29.13289833
lhand  -4.424073174e-031 -37.04510117 -10.63290024
lfingers  90 7.125020027 -90
lthumb  94.8749444 -25.4642751 101.220221
rclavicle  0 -4.497500157e-015 -2.743230041e-014
rhumerus  -18.35820007 -24.26119995 -43.31200027
rradius  -5.16745672e-007 2.214343908e-008 95.86229706
rwrist  0.0003490542294 -0.002273720223 -175.0390015
rhand  -1.769638061e-031 3.889300108 -6.919859886
rfingers  -90 -7.125020027 -90
rthumb  -84.88097321 -9.030612736 -60.28548092
rfemur  -10.54875088 14.31289196 12.23325634
rtibia  0.5146071315 -1.451003432 16.90710831
rfoot  2.233307838 -22.20535469 -33.44754791
rtoes  4.18977977 19.57381598 -102.3342277
lfemur  -1.695628762 -15.15244484 -23.52581787
ltibia  8.469434738 -0.5610952973 4.013559341
lfoot  0.130731374 -19.81162643 36.0185318
ltoes  -8.451836462 -18.19304598 -115.4507352
